<svg xmlns="http://www.w3.org/2000/svg" xmlns:svg="http://www.w3.org/2000/svg" id="svg4" width="16" height="16" version="1.1"><metadata id="metadata10"/><path style="fill:#5c616c" id="path2" d="M 8.5 0 C 5.45 0 3 2.68 3 6 L 3 10 C 3 13.32 5.45 16 8.5 16 C 9.0549438 16 9.5896761 15.909297 10.09375 15.744141 A 4 4 0 0 1 9.0566406 13.654297 L 8 14.710938 L 8 9.0898438 L 5.5703125 11.130859 L 4.9296875 10.369141 L 7.75 8 L 4.9296875 5.6308594 L 5.5703125 4.8691406 L 8 6.9101562 L 8 1.2890625 L 12.240234 5.5292969 L 9.3007812 8 L 11.080078 9.4960938 A 4 4 0 0 1 14 9.1308594 L 14 6 C 14 2.68 11.55 0 8.5 0 z M 9 3.7109375 L 9 6.9492188 L 10.759766 5.4707031 L 9 3.7109375 z M 9 9.0507812 L 9 12.289062 L 9.0800781 12.208984 A 4 4 0 0 1 10.248047 10.099609 L 9 9.0507812 z"/><path id="path4-7-9" d="m 15.999999,13.002449 a 3,3 0 0 1 -5.999998,0 3,3 0 1 1 5.999998,0 z" overflow="visible" style="color:#bebebe;overflow:visible;isolation:auto;mix-blend-mode:normal;fill:#5c616c;fill-opacity:1;stroke:none;stroke-width:1.19999981;stroke-opacity:1;marker:none;enable-background:new"/></svg>